<svg width="40" height="40" viewBox="0 0 40 40" fill="none" xmlns="http://www.w3.org/2000/svg">
<path d="M33.3334 1.66667H6.66675L1.66675 6.66667V33.3333L6.66675 38.3333H33.3334L38.3334 33.3333V6.66667L33.3334 1.66667ZM35.0001 31.95L31.9501 35H8.05008L5.00008 31.95V8.05L8.05008 5H31.9501L35.0001 8.05V31.95Z" fill="#F7931E"/>
<path d="M15.0001 11.6667H11.6667V15H15.0001V11.6667Z" fill="#F7931E"/>
<path d="M21.6666 11.6667H18.3333V15H21.6666V11.6667Z" fill="#F7931E"/>
<path d="M28.3333 11.6667H25V15H28.3333V11.6667Z" fill="#F7931E"/>
<path d="M15.0001 18.3333H11.6667V21.6667H15.0001V18.3333Z" fill="#F7931E"/>
<path d="M21.6666 18.3333H18.3333V21.6667H21.6666V18.3333Z" fill="#F7931E"/>
<path d="M28.3333 18.3333H25V21.6667H28.3333V18.3333Z" fill="#F7931E"/>
<path d="M15.0001 25H11.6667V28.3333H15.0001V25Z" fill="#F7931E"/>
<path d="M21.6666 25H18.3333V28.3333H21.6666V25Z" fill="#F7931E"/>
<path d="M28.3333 25H25V28.3333H28.3333V25Z" fill="#F7931E"/>
</svg>
