<svg width="40" height="40" viewBox="0 0 40 40" fill="none" xmlns="http://www.w3.org/2000/svg">
<path d="M0 0V13.3333H8.33333V16.6667H11.6667V13.3333H15V16.6667H18.3333V13.3333H21.6667V16.6667H25V13.3333H28.3333V16.6667H31.6667V13.3333H40V0H0ZM36.6667 10H31.6667V6.66667H28.3333V10H25V6.66667H21.6667V10H18.3333V6.66667H15V10H11.6667V6.66667H8.33333V10H3.33333V3.33333H36.6667V10Z" fill="#F7931E"/>
<path d="M31.6667 21.6667H28.3333V25H25V21.6667H21.6667V25H18.3333V21.6667H15V25H11.6667V21.6667H8.33333V25H0V40H40V25H31.6667V21.6667ZM36.6667 28.3333V36.6667H3.33333V28.3333H8.33333V31.6667H11.6667V28.3333H15V31.6667H18.3333V28.3333H21.6667V31.6667H25V28.3333H28.3333V31.6667H31.6667V28.3333H36.6667Z" fill="#F7931E"/>
</svg>
