<svg width="130" height="130" viewBox="0 0 130 130" fill="none" xmlns="http://www.w3.org/2000/svg">
<rect x="65" y="8.43164" width="80" height="80" transform="rotate(45 65 8.43164)" fill="white"/>
<path d="M80.75 49.25H49.25L44 54.5V75.5L49.25 80.75H80.75L86 75.5V54.5L80.75 49.25ZM82.5 74.0475L79.2975 77.25H50.7025L47.5 74.0475V61.5H82.5V74.0475ZM82.5 58H47.5V55.9525L50.7025 52.75H79.2975L82.5 55.9525V58Z" fill="#1A1A1A"/>
<path d="M77.25 70.25H70.25V73.75H77.25V70.25Z" fill="#1A1A1A"/>
<rect x="114" y="57" width="16" height="16" fill="#E8EBEF"/>
<rect y="57" width="16" height="16" fill="#E8EBEF"/>
<rect x="57" width="16" height="16" fill="#E8EBEF"/>
<rect x="57" y="114" width="16" height="16" fill="#E8EBEF"/>
</svg>
