<svg width="130" height="130" viewBox="0 0 130 130" fill="none" xmlns="http://www.w3.org/2000/svg">
<rect x="65" y="8.43164" width="80" height="80" transform="rotate(45 65 8.43164)" fill="white"/>
<path d="M72 47.5H58L47.5 58V72L58 82.5H72L82.5 72V58L72 47.5ZM79 70.5475L70.5475 79H59.4525L51 70.5475V59.4525L59.4525 51H70.5475L79 59.4525V70.5475Z" fill="#1A1A1A"/>
<path d="M59.2426 62.0073L56.7576 64.4923L63.2501 70.9673L73.2426 60.9923L70.7576 58.5073L63.2501 66.0323L59.2426 62.0073Z" fill="#1A1A1A"/>
<rect x="114" y="57" width="16" height="16" fill="#E8EBEF"/>
<rect y="57" width="16" height="16" fill="#E8EBEF"/>
<rect x="57" width="16" height="16" fill="#E8EBEF"/>
<rect x="57" y="114" width="16" height="16" fill="#E8EBEF"/>
</svg>
