<svg width="130" height="130" viewBox="0 0 130 130" fill="none" xmlns="http://www.w3.org/2000/svg">
<rect x="65" y="8.43164" width="80" height="80" transform="rotate(45 65 8.43164)" fill="white"/>
<path d="M80.75 58.4725V51L79 49.25H71.5275L66.2775 44H63.7575L58.5075 49.25H51L49.25 51V58.4725L44 63.7225V66.2075L49.25 71.4575V79L51 80.75H58.4725L63.7225 86H66.2075L71.4575 80.75H79L80.75 79V71.5275L86 66.2775V63.7575L80.75 58.4725ZM78.2825 69.06L77.25 70.075V77.25H70.075L69.06 78.2825L65 82.325L60.94 78.2825L59.925 77.25H52.75V70.075L51.7175 69.06L47.675 65L51.7175 60.94L52.75 59.925V52.75H59.925L60.94 51.7175L65 47.675L69.06 51.7175L70.075 52.75H77.25V59.925L78.2825 60.94L82.325 65L78.2825 69.06Z" fill="#1A1A1A"/>
<path d="M61.5 58L58 61.5V68.5L61.5 72H68.5L72 68.5V61.5L68.5 58H61.5ZM68.5 67.0475L67.0475 68.5H62.9525L61.5 67.0475V62.9525L62.9525 61.5H67.0475L68.5 62.9525V67.0475Z" fill="#1A1A1A"/>
<rect x="114" y="57" width="16" height="16" fill="#E8EBEF"/>
<rect y="57" width="16" height="16" fill="#E8EBEF"/>
<rect x="57" width="16" height="16" fill="#E8EBEF"/>
<rect x="57" y="114" width="16" height="16" fill="#E8EBEF"/>
</svg>
