<svg width="130" height="130" viewBox="0 0 130 130" fill="none" xmlns="http://www.w3.org/2000/svg">
<rect x="65" y="8.43164" width="80" height="80" transform="rotate(45 65 8.43164)" fill="white"/>
<path d="M77.7713 49.7546L49.7681 77.7578L52.2429 80.2327L80.2461 52.2295L77.7713 49.7546Z" fill="#1A1A1A"/>
<path d="M59.75 63.25L63.25 59.75V52.75L59.75 49.25H52.75L49.25 52.75V59.75L52.75 63.25H59.75ZM52.75 54.2025L54.2025 52.75H58.2975L59.75 54.2025V58.2975L58.2975 59.75H54.2025L52.75 58.2975V54.2025Z" fill="#1A1A1A"/>
<path d="M77.25 66.75H70.25L66.75 70.25V77.25L70.25 80.75H77.25L80.75 77.25V70.25L77.25 66.75ZM77.25 75.7975L75.7975 77.25H71.7025L70.25 75.7975V71.7025L71.7025 70.25H75.7975L77.25 71.7025V75.7975Z" fill="#1A1A1A"/>
<rect x="114" y="57" width="16" height="16" fill="#E8EBEF"/>
<rect y="57" width="16" height="16" fill="#E8EBEF"/>
<rect x="57" width="16" height="16" fill="#E8EBEF"/>
<rect x="57" y="114" width="16" height="16" fill="#E8EBEF"/>
</svg>
