<svg width="24" height="24" viewBox="0 0 24 24" fill="none" xmlns="http://www.w3.org/2000/svg">
<g clip-path="url(#clip0_434_6)">
<path d="M18.41 4H15V0H13V4H11V0H9V4H5.59L3 6.59V21H21V6.59L18.41 4ZM19 19H5V7.41L6.41 6H17.59L19 7.41V19Z" fill="#1A1A1A"/>
<path d="M21 22H3V24H21V22Z" fill="#1A1A1A"/>
<path d="M9 8H7V10H9V8Z" fill="#1A1A1A"/>
<path d="M13 14L13.01 12.01L12 11L9 14V15V16L11 18H12H13L15 16V15V14L14.02 13.02L13 14Z" fill="#1A1A1A"/>
</g>
<defs>
<clipPath id="clip0_434_6">
<rect width="24" height="24" fill="white"/>
</clipPath>
</defs>
</svg>
