<svg width="40" height="40" viewBox="0 0 40 40" fill="none" xmlns="http://www.w3.org/2000/svg">
<path d="M30.6833 6.66667H25V0H21.6667V6.66667H18.3333V0H15V6.66667H9.31667L5 10.9833V35H35V10.9833L30.6833 6.66667ZM31.6667 31.6667H8.33333V12.35L10.6833 10H29.3167L31.6667 12.35V31.6667Z" fill="#F7931E"/>
<path d="M35 36.6667H5V40H35V36.6667Z" fill="#F7931E"/>
<path d="M15.0001 13.3333H11.6667V16.6667H15.0001V13.3333Z" fill="#F7931E"/>
<path d="M21.6667 23.3333L21.6833 20.0167L20 18.3333L15 23.3333V25V26.6667L18.3333 30H20H21.6667L25 26.6667V25V23.3333L23.3667 21.7L21.6667 23.3333Z" fill="#F7931E"/>
</svg>
