<svg width="250" height="54" viewBox="0 0 250 54" fill="none" xmlns="http://www.w3.org/2000/svg">
<path d="M62.9976 18.9297H65.9974V30.8854H74.9971V33.8743H62.9976V18.9297Z" fill="white"/>
<path d="M89.9965 20.9224V32.8781H86.9966V20.9224H89.9965Z" fill="white"/>
<path d="M102.996 33.8743V18.9297H117.995V33.8743H102.996ZM114.995 30.8854V21.9186H105.996V30.8854H114.995Z" fill="white"/>
<path d="M80.9968 18.9297V21.9186H95.9962V18.9297H80.9968ZM80.9968 30.8854V33.8743H95.9962V30.8854H80.9968Z" fill="white"/>
<path d="M124.995 33.8743V18.9297H127.995L136.995 29.5304V18.9297H139.995V33.8743H136.995L127.995 23.6024V33.8743H124.995Z" fill="white"/>
<path d="M146.994 18.9297H161.994V21.9186H149.994V30.8854H161.994V33.8743H146.994V18.9297ZM158.994 27.8965H154.504V24.9075H158.994V27.8965ZM158.994 30.8854V24.9075H161.994V30.8854H158.994Z" fill="white"/>
<path d="M168.993 33.8743V18.9297H183.993V27.8965H171.993V33.8743H168.993ZM171.993 21.6695V25.1566H180.993V21.6695H171.993ZM179.493 27.8965L184.993 33.8743H180.993L175.493 27.8965H179.493Z" fill="white"/>
<path d="M190.992 33.8743V18.9297H205.992V33.8743H190.992ZM202.992 30.8854V21.9186H193.992V30.8854H202.992Z" fill="white"/>
<path d="M215.991 18.9297V30.8854H224.991V18.9297H227.991V33.8743H212.991V18.9297H215.991Z" fill="white"/>
<path d="M234.991 33.8743V18.9297H249.99V27.8965H237.991V33.8743H234.991ZM237.991 21.6695V25.1566H246.99V21.6695H237.991Z" fill="white"/>
<path d="M47.738 16.439L47.998 17.5349V16.698L47.738 16.439Z" fill="white"/>
<path d="M53.9978 22.676V34.1137L34.2386 53.8007H19.7592L0 34.1137V22.676L5.99976 16.6982V10.7203L10.7596 5.97786H16.7593L22.7591 0H31.2388L37.2385 5.97786H43.2383L47.9981 10.7203V16.6982L47.7381 16.4391L47.9981 17.5351V16.6982L53.9978 22.676Z" fill="white"/>
<path d="M43.4984 16.439L44.9983 14.9445V11.9556L41.9984 8.96663H35.9987L29.9989 2.98877H23.9992L17.9994 8.96663H11.9996L8.99976 11.9556V14.9445L10.4997 16.439L3 23.9113V32.8781L20.9993 50.8116H32.9988L50.9981 32.8781V23.9113L43.4984 16.439ZM29.4989 44.8338H24.4991L21.4993 41.8449L26.999 36.3652L32.4988 41.8449L29.4989 44.8338ZM38.9986 26.9002V32.8781L32.9988 38.8559L28.499 34.3725L32.9988 29.8891V23.9113H35.9987V20.9223H29.9989V29.391H23.9992V20.9223H17.9994V23.9113H20.9993V29.8891L25.4991 34.3725L20.9993 38.8559L14.9995 32.8781V26.9002L11.9996 23.9113L23.9992 11.9556H29.9989L41.9984 23.9113L38.9986 26.9002Z" fill="#1A1A1A"/>
<path d="M69.6456 47.748C69.6456 45.804 68.4336 44.496 66.5496 44.496C64.6656 44.496 63.4536 45.804 63.4536 47.748C63.4536 49.692 64.6656 51 66.5496 51C68.4336 51 69.6456 49.692 69.6456 47.748ZM68.2056 47.748C68.2056 49.044 67.5936 49.848 66.5496 49.848C65.5056 49.848 64.8936 49.044 64.8936 47.748C64.8936 46.452 65.5056 45.648 66.5496 45.648C67.5936 45.648 68.2056 46.452 68.2056 47.748ZM72.4631 50.856H73.8791V45.768H76.0511V44.64H70.2911V45.768H72.4631V50.856ZM82.8877 47.748C82.8877 45.804 81.6757 44.496 79.7917 44.496C77.9077 44.496 76.6957 45.804 76.6957 47.748C76.6957 49.692 77.9077 51 79.7917 51C81.6757 51 82.8877 49.692 82.8877 47.748ZM81.4477 47.748C81.4477 49.044 80.8357 49.848 79.7917 49.848C78.7477 49.848 78.1357 49.044 78.1357 47.748C78.1357 46.452 78.7477 45.648 79.7917 45.648C80.8357 45.648 81.4477 46.452 81.4477 47.748ZM88.1773 45.768V50.856H89.5933V44.64H84.1453V50.856H85.5613V45.768H88.1773ZM92.076 44.64V48.804C92.076 49.488 91.836 49.848 91.152 49.848C90.96 49.848 90.816 49.836 90.624 49.812V50.964C90.792 50.988 91.032 51 91.212 51C92.808 51 93.492 50.352 93.492 48.852V45.78H95.592V50.856H97.008V44.64H92.076ZM104.318 47.784C104.318 45.852 103.094 44.496 101.306 44.496C99.482 44.496 98.27 45.864 98.27 47.748C98.27 49.656 99.554 51 101.51 51C102.566 51 103.454 50.556 104.042 49.764L103.046 49.056C102.638 49.56 102.122 49.848 101.498 49.848C100.538 49.848 99.842 49.212 99.71 48.264H104.294C104.318 48.132 104.318 47.916 104.318 47.784ZM101.306 45.648C102.158 45.648 102.818 46.236 102.89 47.184H99.698C99.83 46.224 100.418 45.648 101.306 45.648ZM106.995 46.908V44.64H105.579V50.856H106.995V48.036H109.815V50.856H111.231V44.64H109.815V46.908H106.995ZM118.653 50.856V44.64H117.249L114.261 48.828V44.64H112.845V50.856H114.249L117.237 46.668V50.856H118.653ZM125.962 47.784C125.962 45.852 124.738 44.496 122.95 44.496C121.126 44.496 119.914 45.864 119.914 47.748C119.914 49.656 121.198 51 123.154 51C124.21 51 125.098 50.556 125.686 49.764L124.69 49.056C124.282 49.56 123.766 49.848 123.142 49.848C122.182 49.848 121.486 49.212 121.354 48.264H125.938C125.962 48.132 125.962 47.916 125.962 47.784ZM122.95 45.648C123.802 45.648 124.462 46.236 124.534 47.184H121.342C121.474 46.224 122.062 45.648 122.95 45.648Z" fill="white"/>
</svg>
