<svg width="40" height="40" viewBox="0 0 40 40" fill="none" xmlns="http://www.w3.org/2000/svg">
<path d="M20 30.4902C18.1518 31.576 16.0496 32.1544 13.9061 32.1666C11.7626 32.1789 9.65387 31.6246 7.79343 30.5599C5.93299 29.4952 4.38686 27.9579 3.31155 26.1035C2.23624 24.2492 1.66992 22.1437 1.66992 20.0002C1.66992 17.8566 2.23624 15.7511 3.31155 13.8968C4.38686 12.0424 5.93299 10.5051 7.79343 9.44043C9.65387 8.37573 11.7626 7.82145 13.9061 7.83369C16.0496 7.84594 18.1518 8.42428 20 9.51016C21.8482 8.42428 23.9504 7.84594 26.0939 7.83369C28.2374 7.82145 30.3461 8.37573 32.2066 9.44043C34.067 10.5051 35.6132 12.0424 36.6885 13.8968C37.7638 15.7511 38.3301 17.8566 38.3301 20.0002C38.3301 22.1437 37.7638 24.2492 36.6885 26.1035C35.6132 27.9579 34.067 29.4952 32.2066 30.5599C30.3461 31.6246 28.2374 32.1789 26.0939 32.1666C23.9504 32.1544 21.8482 31.576 20 30.4902ZM22.8367 28.1835C24.1778 28.7285 25.6323 28.9356 27.0723 28.7865C28.5123 28.6374 29.8935 28.1367 31.0945 27.3284C32.2955 26.5201 33.2794 25.429 33.9597 24.1512C34.64 22.8733 34.9958 21.4478 34.9958 20.0002C34.9958 18.5525 34.64 17.127 33.9597 15.8492C33.2794 14.5713 32.2955 13.4802 31.0945 12.6719C29.8935 11.8637 28.5123 11.3629 27.0723 11.2138C25.6323 11.0647 24.1778 11.2718 22.8367 11.8168C24.8759 14.0539 26.0043 16.9731 26 20.0002C26 23.1502 24.8017 26.0235 22.8367 28.1835ZM17.1633 11.8168C15.8222 11.2718 14.3677 11.0647 12.9277 11.2138C11.4877 11.3629 10.1065 11.8637 8.90551 12.6719C7.70452 13.4802 6.72059 14.5713 6.04031 15.8492C5.36002 17.127 5.00422 18.5525 5.00422 20.0002C5.00422 21.4478 5.36002 22.8733 6.04031 24.1512C6.72059 25.429 7.70452 26.5201 8.90551 27.3284C10.1065 28.1367 11.4877 28.6374 12.9277 28.7865C14.3677 28.9356 15.8222 28.7285 17.1633 28.1835C15.1241 25.9464 13.9957 23.0272 14 20.0002C14 16.8502 15.1983 13.9768 17.1633 11.8168ZM20 13.6752C19.1547 14.4972 18.4831 15.4807 18.0251 16.5672C17.567 17.6536 17.3318 18.8211 17.3333 20.0002C17.3333 22.4802 18.355 24.7202 20 26.3252C20.8453 25.5031 21.5169 24.5197 21.9749 23.4332C22.433 22.3467 22.6682 21.1793 22.6667 20.0002C22.6682 18.8211 22.433 17.6536 21.9749 16.5672C21.5169 15.4807 20.8453 14.4972 20 13.6752Z" fill="white"/>
</svg>
