<svg width="108" height="9" viewBox="0 0 108 9" fill="none" xmlns="http://www.w3.org/2000/svg">
<path d="M0.355469 0.28125H2.07321V7.03111H7.22644V8.71858H0.355469V0.28125Z" fill="white"/>
<path d="M16.1018 1.125V7.87486H14.384V1.125H16.1018Z" fill="white"/>
<path d="M23.5454 8.71858V0.28125H32.1341V8.71858H23.5454ZM30.4164 7.03111V1.96872H25.2632V7.03111H30.4164Z" fill="white"/>
<path d="M10.9485 0.28125V1.96872H19.5372V0.28125H10.9485ZM10.9485 7.03111V8.71858H19.5372V7.03111H10.9485Z" fill="white"/>
<path d="M36.1426 8.71858V0.28125H37.8603L43.0135 6.26613V0.28125H44.7313V8.71858H43.0135L37.8603 2.91651V8.71858H36.1426Z" fill="white"/>
<path d="M48.7395 0.28125H57.3282V1.96872H50.4572V7.03111H57.3282V8.71858H48.7395V0.28125ZM55.6105 5.34365H53.0339V3.65618H55.6105V5.34365ZM55.6105 7.03111V3.65618H57.3282V7.03111H55.6105Z" fill="white"/>
<path d="M61.3364 8.71858V0.28125H69.9251V5.34365H63.0542V8.71858H61.3364ZM63.0542 1.96872V3.65618H68.2074V1.96872H63.0542ZM67.3485 5.34365L70.4977 8.71858H68.2074L65.0582 5.34365H67.3485Z" fill="white"/>
<path d="M73.9336 8.71858V0.28125H82.5223V8.71858H73.9336ZM80.8046 7.03111V1.96872H75.6513V7.03111H80.8046Z" fill="white"/>
<path d="M88.2483 0.28125V7.03111H93.4015V0.28125H95.1192V8.71858H86.5305V0.28125H88.2483Z" fill="white"/>
<path d="M99.4138 8.71858V0.28125H108.003V5.34365H101.132V8.71858H99.4138ZM101.132 1.96872V3.65618H106.285V1.96872H101.132Z" fill="white"/>
</svg>
