<svg width="40" height="40" viewBox="0 0 40 40" fill="none" xmlns="http://www.w3.org/2000/svg">
<path d="M3.33333 16.6667H0V26.6667H3.33333V16.6667Z" fill="#F7931E"/>
<path d="M33.3333 6.66667H26.6667V0H23.3333V6.66667H20V0H16.6667V6.66667H10L5 11.6667V31.6667L10 36.6667H11.6667V40H15V36.6667H28.3333V40H31.6667V36.6667H33.3333L38.3333 31.6667V11.6667L33.3333 6.66667ZM35 30.2833L31.95 33.3333H11.3833L8.33333 30.2833V13.05L11.3833 10H31.95L35 13.05V30.2833Z" fill="#F7931E"/>
<path d="M31.6667 13.3333H11.6667V16.6667H31.6667V13.3333Z" fill="#F7931E"/>
<path d="M31.6667 20H11.6667V23.3333H31.6667V20Z" fill="#F7931E"/>
<path d="M31.6667 26.6667H11.6667V30H31.6667V26.6667Z" fill="#F7931E"/>
</svg>
