<svg width="20" height="20" viewBox="0 0 20 20" fill="none" xmlns="http://www.w3.org/2000/svg">
<path d="M15.0258 13.8475L18.595 17.4158L17.4158 18.595L13.8475 15.0258C12.5197 16.0902 10.8683 16.6691 9.16663 16.6667C5.02663 16.6667 1.66663 13.3067 1.66663 9.16667C1.66663 5.02667 5.02663 1.66667 9.16663 1.66667C13.3066 1.66667 16.6666 5.02667 16.6666 9.16667C16.669 10.8683 16.0901 12.5198 15.0258 13.8475ZM13.3541 13.2292C14.4117 12.1416 15.0023 10.6837 15 9.16667C15 5.94334 12.3891 3.33334 9.16663 3.33334C5.94329 3.33334 3.33329 5.94334 3.33329 9.16667C3.33329 12.3892 5.94329 15 9.16663 15C10.6837 15.0024 12.1415 14.4118 13.2291 13.3542L13.3541 13.2292Z" fill="#7C7C7C"/>
</svg>
