<svg width="40" height="40" viewBox="0 0 40 40" fill="none" xmlns="http://www.w3.org/2000/svg">
<path d="M37.0367 26.2799L36.6617 24.4049H32.4717L31.805 26.2665L28.4467 26.2732C30.0455 22.4284 31.6477 18.5851 33.2533 14.7432C33.5267 14.0915 34.0117 13.7599 34.7267 13.7632C35.2733 13.7682 36.165 13.7682 37.4033 13.7649L40 26.2749L37.0367 26.2799ZM33.415 21.8365H36.115L35.1067 17.1365L33.415 21.8365ZM11.7667 13.7615L15.1433 13.7649L9.92333 26.2815L6.505 26.2782C5.64541 22.9721 4.79652 19.6632 3.95833 16.3515C3.79167 15.6915 3.46167 15.2299 2.82667 15.0115C2.26167 14.8165 1.32 14.5165 0 14.1082V13.7665H5.395C6.32833 13.7665 6.87333 14.2182 7.04833 15.1449C7.225 16.0732 7.66833 18.4365 8.38167 22.2349L11.7667 13.7615ZM19.7833 13.7649L17.1133 26.2782L13.9 26.2749L16.5667 13.7615L19.7833 13.7649ZM26.3 13.5332C27.2617 13.5332 28.4733 13.8332 29.17 14.1082L28.6067 16.7032C27.9767 16.4499 26.94 16.1082 26.0683 16.1199C24.8017 16.1415 24.0183 16.6732 24.0183 17.1832C24.0183 18.0132 25.3783 18.4315 26.7783 19.3382C28.3767 20.3715 28.5867 21.2999 28.5667 22.3082C28.545 24.4015 26.7783 26.4665 23.0517 26.4665C21.3517 26.4415 20.7383 26.2982 19.3517 25.8065L19.9383 23.0982C21.35 23.6899 21.9483 23.8782 23.155 23.8782C24.26 23.8782 25.2083 23.4315 25.2167 22.6532C25.2233 22.0999 24.8833 21.8249 23.6433 21.1415C22.4033 20.4565 20.6633 19.5082 20.6867 17.6049C20.715 15.1682 23.0233 13.5332 26.3017 13.5332H26.3Z" fill="white"/>
</svg>
